<svg width="1000" height="1000" viewBox="0 0 1000 1000" fill="none" xmlns="http://www.w3.org/2000/svg">
<g clip-path="url(#clip0_22_2)">
<path fill-rule="evenodd" clip-rule="evenodd" d="M508.211 878.328C433.204 878.328 398.347 867.378 337.758 823.578C299.433 872.853 178.072 911.361 172.779 845.478C172.779 796.022 161.829 754.23 149.419 708.605C134.637 652.395 117.847 589.798 117.847 499.097C117.847 282.471 295.601 119.5 506.204 119.5C716.989 119.5 882.151 290.501 882.151 501.104C882.858 708.45 715.556 877.222 508.211 878.328ZM511.314 306.743C408.75 301.451 328.815 372.443 311.113 483.767C296.513 575.929 322.428 688.165 344.51 694.005C355.095 696.56 381.74 675.025 398.347 658.418C425.808 677.389 457.787 688.783 491.057 691.45C597.33 696.562 688.137 615.656 695.272 509.5C699.426 403.118 617.602 313.014 511.314 306.926V306.743Z" fill="#50AD3B"/>
</g>
<defs>
<clipPath id="clip0_22_2">
<rect width="1000" height="1000" fill="white"/>
</clipPath>
</defs>
</svg>
